<svg width="22" height="21" viewBox="0 0 22 21" fill="none" xmlns="http://www.w3.org/2000/svg">
<path d="M16.8286 15.5996C18.2537 15.5996 19.409 16.755 19.409 18.18C19.409 19.6051 18.2537 20.7604 16.8286 20.7604C15.4035 20.7604 14.2482 19.6051 14.2482 18.18C14.2482 16.755 15.4035 15.5996 16.8286 15.5996ZM8.61827 15.5996C10.0434 15.5996 11.1987 16.755 11.1987 18.18C11.1987 19.6051 10.0434 20.7604 8.61827 20.7604C7.19319 20.7604 6.03788 19.6051 6.03788 18.18C6.03788 16.7552 7.19343 15.5996 8.61827 15.5996ZM16.8286 17.2417C16.5797 17.2418 16.341 17.3407 16.1651 17.5167C15.9892 17.6928 15.8903 17.9315 15.8904 18.1804C15.8905 18.4293 15.9894 18.6679 16.1654 18.8439C16.3415 19.0198 16.5802 19.1187 16.8291 19.1186C16.9523 19.1186 17.0743 19.0943 17.1882 19.0471C17.302 18.9999 17.4055 18.9307 17.4926 18.8436C17.5797 18.7564 17.6488 18.6529 17.6959 18.5391C17.7431 18.4252 17.7673 18.3032 17.7673 18.1799C17.7673 18.0567 17.7429 17.9347 17.6958 17.8208C17.6486 17.707 17.5794 17.6035 17.4923 17.5164C17.4051 17.4293 17.3016 17.3602 17.1877 17.3131C17.0739 17.2659 16.9518 17.2417 16.8286 17.2417ZM8.61827 17.2417C8.36941 17.2417 8.13075 17.3406 7.95478 17.5165C7.77881 17.6925 7.67995 17.9312 7.67995 18.18C7.67995 18.4289 7.77881 18.6676 7.95478 18.8435C8.13075 19.0195 8.36941 19.1184 8.61827 19.1184C8.86713 19.1184 9.1058 19.0195 9.28177 18.8435C9.45774 18.6676 9.5566 18.4289 9.5566 18.18C9.5566 17.9312 9.45774 17.6925 9.28177 17.5165C9.1058 17.3406 8.86713 17.2417 8.61827 17.2417ZM2.99865 0C3.53514 0 4.02518 0.363601 4.18516 0.872641L4.20017 0.924249L4.89688 3.54851H20.8784C21.0462 3.54658 21.2123 3.58277 21.364 3.65434C21.5158 3.7259 21.6494 3.83099 21.7547 3.96167C21.8599 4.09235 21.9342 4.24522 21.9718 4.40877C22.0094 4.57231 22.0094 4.74225 21.9718 4.90579L21.9605 4.95271L19.7182 13.4659C19.5814 13.9857 19.104 14.3672 18.5701 14.3911L18.5167 14.3923H6.79136C6.25487 14.3923 5.76459 14.0286 5.60438 13.5196L5.5896 13.4682L2.51096 1.87688L0.00093834 1.87829L0 0.00164206L2.99841 0H2.99865ZM19.8955 5.42516H5.39513L7.27811 12.5156H18.0278L19.8955 5.42516Z" fill="white"/>
</svg>
