<svg width="32" height="32" viewBox="0 0 32 32" fill="none" xmlns="http://www.w3.org/2000/svg">
<g clip-path="url(#clip0_1209_30518)">
<circle cx="16" cy="16" r="11" fill="#FF0000"/>
<path d="M15.9998 0.800781C7.60492 0.800781 0.799805 7.62414 0.799805 16.0411C1.60044 36.2571 30.402 36.2513 31.1998 16.0408C31.1998 7.62414 24.3944 0.800781 15.9998 0.800781ZM15.9998 24.7685C11.1883 24.7685 7.2734 20.8539 7.2734 16.0421C7.5102 10.0702 11.9627 7.35918 15.9995 7.35918C15.9998 7.35918 15.9998 7.35918 16.0001 7.35918C20.0372 7.3595 24.49 10.0705 24.7256 16.0225C24.7262 20.8542 20.8113 24.7685 15.9998 24.7685Z" fill="#FF0000"/>
<path d="M16.0004 8.35352C10.8977 8.3532 8.4151 12.349 8.26758 16.0617C8.2679 20.3055 11.7364 23.774 15.9997 23.774C20.2631 23.774 23.7316 20.3055 23.7316 16.0422C23.5853 12.3497 21.1031 8.35416 16.0004 8.35352Z" fill="#FF0000"/>
<path d="M11.2521 17.4437C11.2515 18.9493 11.2527 22.0435 11.2521 23.5597L23.9998 15.7147L11.2521 8.52344V17.4437Z" fill="white"/>
</g>
<defs>
<clipPath id="clip0_1209_30518">
<rect width="32" height="32" fill="white"/>
</clipPath>
</defs>
</svg>
