<svg width="32" height="32" viewBox="0 0 32 32" fill="none" xmlns="http://www.w3.org/2000/svg">
<g clip-path="url(#clip0_1209_30516)">
<path d="M16 32C24.8366 32 32 24.8366 32 16C32 7.16344 24.8366 0 16 0C7.16344 0 0 7.16344 0 16C0 24.8366 7.16344 32 16 32Z" fill="url(#paint0_linear_1209_30516)"/>
<path d="M19.6377 7H12.3622C9.40545 7 7 9.40545 7 12.3622V19.6377C7 22.5944 9.40545 25 12.3623 25H19.6378C22.5944 25 25.0001 22.5945 25.0001 19.6377V12.3622C25 9.40545 22.5945 7 19.6377 7ZM23.1892 19.6378C23.1892 21.5992 21.5992 23.1892 19.6378 23.1892H12.3623C10.4009 23.1892 8.81085 21.5992 8.81085 19.6378V12.3623C8.81085 10.4009 10.4009 8.81078 12.3623 8.81078H19.6378C21.5992 8.81078 23.1892 10.4009 23.1892 12.3623V19.6378Z" fill="white"/>
<path d="M15.9993 11.3438C13.4323 11.3438 11.3438 13.4323 11.3438 15.9993C11.3438 18.5661 13.4323 20.6546 15.9993 20.6546C18.5663 20.6546 20.6546 18.5663 20.6546 15.9993C20.6546 13.4323 18.5663 11.3438 15.9993 11.3438ZM15.9993 18.8438C14.4282 18.8438 13.1545 17.5704 13.1545 15.9993C13.1545 14.4281 14.4282 13.1545 15.9993 13.1545C17.5703 13.1545 18.8438 14.4281 18.8438 15.9993C18.8438 17.5703 17.5703 18.8438 15.9993 18.8438Z" fill="white"/>
<path d="M21.7809 11.3792C21.7809 11.9953 21.2815 12.4948 20.6654 12.4948C20.0493 12.4948 19.5498 11.9953 19.5498 11.3792C19.5498 10.7631 20.0493 10.2637 20.6654 10.2637C21.2816 10.2637 21.7809 10.763 21.7809 11.3792Z" fill="white"/>
</g>
<defs>
<linearGradient id="paint0_linear_1209_30516" x1="16" y1="31.9068" x2="16" y2="0.248538" gradientUnits="userSpaceOnUse">
<stop stop-color="#E09B3D"/>
<stop offset="0.3" stop-color="#C74C4D"/>
<stop offset="0.6" stop-color="#C21975"/>
<stop offset="1" stop-color="#7024C4"/>
</linearGradient>
<clipPath id="clip0_1209_30516">
<rect width="32" height="32" fill="white"/>
</clipPath>
</defs>
</svg>
