<svg width="32" height="32" viewBox="0 0 32 32" fill="none" xmlns="http://www.w3.org/2000/svg">
<g clip-path="url(#clip0_1209_30515)">
<path d="M16 32C24.8366 32 32 24.8366 32 16C32 7.16344 24.8366 0 16 0C7.16344 0 0 7.16344 0 16C0 24.8366 7.16344 32 16 32Z" fill="#3B5998"/>
<path d="M19.6861 16.6279H17.048V26.2929H13.0509V16.6279H11.1499V13.2312H13.0509V11.0332C13.0509 9.46133 13.7976 7 17.0835 7L20.0443 7.01239V10.3094H17.8961C17.5437 10.3094 17.0482 10.4855 17.0482 11.2353V13.2344H20.0353L19.6861 16.6279Z" fill="white"/>
</g>
<defs>
<clipPath id="clip0_1209_30515">
<rect width="32" height="32" fill="white"/>
</clipPath>
</defs>
</svg>
