<svg width="32" height="32" viewBox="0 0 32 32" fill="none" xmlns="http://www.w3.org/2000/svg">
<g clip-path="url(#clip0_1209_30517)">
<path d="M16 32C24.8366 32 32 24.8366 32 16C32 7.16344 24.8366 0 16 0C7.16344 0 0 7.16344 0 16C0 24.8366 7.16344 32 16 32Z" fill="#007AB9"/>
<path d="M24.7441 17.8088V24H21.1546V18.2237C21.1546 16.7734 20.6364 15.7829 19.3367 15.7829C18.3449 15.7829 17.7557 16.4497 17.4956 17.0954C17.4011 17.3261 17.3767 17.6466 17.3767 17.9702V23.9997H13.7869C13.7869 23.9997 13.8351 14.2166 13.7869 13.2039H17.377V14.7338C17.3697 14.7459 17.3596 14.7576 17.3531 14.7691H17.377V14.7338C17.854 13.9998 18.7047 12.9504 20.612 12.9504C22.9736 12.9504 24.7441 14.4934 24.7441 17.8088ZM10.0317 8C8.80383 8 8.00049 8.80602 8.00049 9.86502C8.00049 10.9015 8.78054 11.7308 9.98463 11.7308H10.0079C11.2599 11.7308 12.0384 10.9015 12.0384 9.86502C12.0145 8.80602 11.2599 8 10.0317 8ZM8.21384 24H11.8023V13.2039H8.21384V24Z" fill="white"/>
</g>
<defs>
<clipPath id="clip0_1209_30517">
<rect width="32" height="32" fill="white"/>
</clipPath>
</defs>
</svg>
